<svg xmlns="http://www.w3.org/2000/svg" width="600" height="600" viewBox="0 0 600 600">
  <defs>
    <style>
      .cls-1 {
        fill: #c15c76;
      }

      .cls-1, .cls-2, .cls-3 {
        fill-rule: evenodd;
      }

      .cls-2 {
        fill: #f8f7f2;
      }

      .cls-3 {
        fill: #ebadcb;
      }
    </style>
  </defs>
  <path id="Triangle_in_A" data-name="Triangle in A" class="cls-1" d="M243,333c0.933-13.872,8.582-24.93,13-36q17.5-46.5,35-93l2,1,48,127-1,1H243Z"/>
  <path id="White_A" data-name="White A" class="cls-2" d="M295,155l11,1c11.345,6.725,28.485,65.142,35,81l78,190c6.4,8.192,22.845,6.648,32,12v1q-0.5,3-1,6l-3,1H354l-4-2q0.5-3,1-6l2-2c8.368-3.334,20.259-1.156,23-10,1.3-4.184-26.067-73.431-27-74l-111-1c-3.079.967-32.609,67.073-30,75,3.459,10.512,20.31,5.019,26,13l1,3-3,4c-9.8,1.8-79.919-.056-82-3v-7c45.962-10.008,42.15-37.883,58-76l58-140C274.3,200.309,280.19,169.858,295,155Zm-4,50L243,332l1,1,96-1C338.988,318.719,297.963,212.821,291,205Z"/>
  <path id="Dark_pink_house" data-name="Dark pink house" class="cls-1" d="M376,116c21.44-.722,47.217-3.567,54,11,7.953,14.768,2.183,79.976,2,102,19.919-.233,61.442-5.313,71,6,9.93,11.753,4,54.39,4,74V512H93V311c0-20.629-5.78-61.992,4-75,9.26-12.316,50.178-7.213,71-7-0.55-29.5-6.681-103.416,12-112l45-1c-0.211-26.833-3.686-61.748,2-85l12-9c20.828-5.991,128.593.1,134,8C380.36,40.753,376.315,97.294,376,116Zm-80,39-5,3L181,427c-6.667,8.107-20.732,6.313-31,11q1,4.5,2,9c18.941,0.221,69.063,3.9,82-2-0.215-4.513-.708-5.391-2-8-8.666-1.346-16.156-2.462-22-6-4.681-16.207,17.31-66.867,26-79,25.321-.261,98.787-6.387,115,3,6.258,20.625,32.669,59.647,21,78-6.168,1.532-17,2.993-22,6v1q1,3.5,2,7c19.176,0.191,86.534,3.213,98-2q-1-4.5-2-9c-40.436-.825-42.249-41.363-54-70L335,223c-9.083-21.42-14.45-52.513-30-68h-9Z"/>
  <path id="Pink_circle" data-name="Pink circle" class="cls-3" d="M263,4C427.634,1.724,519.5,69.136,570,180c30.162,66.21,35.777,164.446,4,235-36.084,80.117-94.532,129.9-176,165l-66,16H301c-53.855,0-90.677-10.994-127-27C66.2,521.5-44.1,378.937,12,210,38.044,131.568,94.5,65.962,166,33l58-21ZM226,118c-17.629-.332-45.728-3.548-53,7-8.215,11.917-3.392,83.831-3,105-24.245-.652-65.143-5.642-73,11-6.5,12.221-2,58.966-2,77V511H506V313c0-19.777,6.19-61.6-3-75-9.117-13.295-50.17-8.23-72-8,0.333-22.679,4.643-99.023-6-108-9.97-8.41-36.364-1.423-51-5,3.561-24.009,7.084-82.909-10-91-3.962-2.181-115.763-4.862-125-2l-11,9C221.427,43.907,225.7,100.4,226,118Z"/>
</svg>
